<?xml version="1.0" encoding="utf-8" standalone="no"?>
<!DOCTYPE svg PUBLIC "-//W3C//DTD SVG 1.1//EN"
  "http://www.w3.org/Graphics/SVG/1.1/DTD/svg11.dtd">
<!-- Created with matplotlib (https://matplotlib.org/) -->
<svg height="432pt" version="1.1" viewBox="0 0 576 432" width="576pt" xmlns="http://www.w3.org/2000/svg" xmlns:xlink="http://www.w3.org/1999/xlink">
 <defs>
  <style type="text/css">
*{stroke-linecap:butt;stroke-linejoin:round;}
  </style>
 </defs>
 <g id="figure_1">
  <g id="patch_1">
   <path d="M 0 432 
L 576 432 
L 576 0 
L 0 0 
z
" style="fill:#ffffff;"/>
  </g>
  <g id="axes_1">
   <g id="patch_2">
    <path d="M 72 378 
L 518.4 378 
L 518.4 51.84 
L 72 51.84 
z
" style="fill:#ffffff;"/>
   </g>
   <g id="matplotlib.axis_1">
    <g id="xtick_1">
     <g id="line2d_1">
      <path clip-path="url(#p7ed0f8c9f9)" d="M 109.2 378 
L 109.2 51.84 
" style="fill:none;stroke:#cccccc;stroke-linecap:round;stroke-width:0.8;"/>
     </g>
     <g id="text_1">
      <!-- Daily Mean Travel Time (Minutes) -->
      <defs>
       <path d="M 7.71875 0 
L 7.71875 71.578125 
L 32.375 71.578125 
Q 40.71875 71.578125 45.125 70.5625 
Q 51.265625 69.140625 55.609375 65.4375 
Q 61.28125 60.640625 64.078125 53.1875 
Q 66.890625 45.75 66.890625 36.1875 
Q 66.890625 28.03125 64.984375 21.734375 
Q 63.09375 15.4375 60.109375 11.296875 
Q 57.125 7.171875 53.578125 4.796875 
Q 50.046875 2.4375 45.046875 1.21875 
Q 40.046875 0 33.546875 0 
z
M 17.1875 8.453125 
L 32.46875 8.453125 
Q 39.546875 8.453125 43.578125 9.765625 
Q 47.609375 11.078125 50 13.484375 
Q 53.375 16.84375 55.25 22.53125 
Q 57.125 28.21875 57.125 36.328125 
Q 57.125 47.5625 53.4375 53.59375 
Q 49.75 59.625 44.484375 61.671875 
Q 40.671875 63.140625 32.234375 63.140625 
L 17.1875 63.140625 
z
" id="ArialMT-68"/>
       <path d="M 40.4375 6.390625 
Q 35.546875 2.25 31.03125 0.53125 
Q 26.515625 -1.171875 21.34375 -1.171875 
Q 12.796875 -1.171875 8.203125 3 
Q 3.609375 7.171875 3.609375 13.671875 
Q 3.609375 17.484375 5.34375 20.625 
Q 7.078125 23.78125 9.890625 25.6875 
Q 12.703125 27.59375 16.21875 28.5625 
Q 18.796875 29.25 24.03125 29.890625 
Q 34.671875 31.15625 39.703125 32.90625 
Q 39.75 34.71875 39.75 35.203125 
Q 39.75 40.578125 37.25 42.78125 
Q 33.890625 45.75 27.25 45.75 
Q 21.046875 45.75 18.09375 43.578125 
Q 15.140625 41.40625 13.71875 35.890625 
L 5.125 37.0625 
Q 6.296875 42.578125 8.984375 45.96875 
Q 11.671875 49.359375 16.75 51.1875 
Q 21.828125 53.03125 28.515625 53.03125 
Q 35.15625 53.03125 39.296875 51.46875 
Q 43.453125 49.90625 45.40625 47.53125 
Q 47.359375 45.171875 48.140625 41.546875 
Q 48.578125 39.3125 48.578125 33.453125 
L 48.578125 21.734375 
Q 48.578125 9.46875 49.140625 6.21875 
Q 49.703125 2.984375 51.375 0 
L 42.1875 0 
Q 40.828125 2.734375 40.4375 6.390625 
z
M 39.703125 26.03125 
Q 34.90625 24.078125 25.34375 22.703125 
Q 19.921875 21.921875 17.671875 20.9375 
Q 15.4375 19.96875 14.203125 18.09375 
Q 12.984375 16.21875 12.984375 13.921875 
Q 12.984375 10.40625 15.640625 8.0625 
Q 18.3125 5.71875 23.4375 5.71875 
Q 28.515625 5.71875 32.46875 7.9375 
Q 36.421875 10.15625 38.28125 14.015625 
Q 39.703125 17 39.703125 22.796875 
z
" id="ArialMT-97"/>
       <path d="M 6.640625 61.46875 
L 6.640625 71.578125 
L 15.4375 71.578125 
L 15.4375 61.46875 
z
M 6.640625 0 
L 6.640625 51.859375 
L 15.4375 51.859375 
L 15.4375 0 
z
" id="ArialMT-105"/>
       <path d="M 6.390625 0 
L 6.390625 71.578125 
L 15.1875 71.578125 
L 15.1875 0 
z
" id="ArialMT-108"/>
       <path d="M 6.203125 -19.96875 
L 5.21875 -11.71875 
Q 8.109375 -12.5 10.25 -12.5 
Q 13.1875 -12.5 14.9375 -11.515625 
Q 16.703125 -10.546875 17.828125 -8.796875 
Q 18.65625 -7.46875 20.515625 -2.25 
Q 20.75 -1.515625 21.296875 -0.09375 
L 1.609375 51.859375 
L 11.078125 51.859375 
L 21.875 21.828125 
Q 23.96875 16.109375 25.640625 9.8125 
Q 27.15625 15.875 29.25 21.625 
L 40.328125 51.859375 
L 49.125 51.859375 
L 29.390625 -0.875 
Q 26.21875 -9.421875 24.46875 -12.640625 
Q 22.125 -17 19.09375 -19.015625 
Q 16.0625 -21.046875 11.859375 -21.046875 
Q 9.328125 -21.046875 6.203125 -19.96875 
z
" id="ArialMT-121"/>
       <path id="ArialMT-32"/>
       <path d="M 7.421875 0 
L 7.421875 71.578125 
L 21.6875 71.578125 
L 38.625 20.90625 
Q 40.96875 13.8125 42.046875 10.296875 
Q 43.265625 14.203125 45.84375 21.78125 
L 62.984375 71.578125 
L 75.734375 71.578125 
L 75.734375 0 
L 66.609375 0 
L 66.609375 59.90625 
L 45.796875 0 
L 37.25 0 
L 16.546875 60.9375 
L 16.546875 0 
z
" id="ArialMT-77"/>
       <path d="M 42.09375 16.703125 
L 51.171875 15.578125 
Q 49.03125 7.625 43.21875 3.21875 
Q 37.40625 -1.171875 28.375 -1.171875 
Q 17 -1.171875 10.328125 5.828125 
Q 3.65625 12.84375 3.65625 25.484375 
Q 3.65625 38.578125 10.390625 45.796875 
Q 17.140625 53.03125 27.875 53.03125 
Q 38.28125 53.03125 44.875 45.953125 
Q 51.46875 38.875 51.46875 26.03125 
Q 51.46875 25.25 51.421875 23.6875 
L 12.75 23.6875 
Q 13.234375 15.140625 17.578125 10.59375 
Q 21.921875 6.0625 28.421875 6.0625 
Q 33.25 6.0625 36.671875 8.59375 
Q 40.09375 11.140625 42.09375 16.703125 
z
M 13.234375 30.90625 
L 42.1875 30.90625 
Q 41.609375 37.453125 38.875 40.71875 
Q 34.671875 45.796875 27.984375 45.796875 
Q 21.921875 45.796875 17.796875 41.75 
Q 13.671875 37.703125 13.234375 30.90625 
z
" id="ArialMT-101"/>
       <path d="M 6.59375 0 
L 6.59375 51.859375 
L 14.5 51.859375 
L 14.5 44.484375 
Q 20.21875 53.03125 31 53.03125 
Q 35.6875 53.03125 39.625 51.34375 
Q 43.5625 49.65625 45.515625 46.921875 
Q 47.46875 44.1875 48.25 40.4375 
Q 48.734375 37.984375 48.734375 31.890625 
L 48.734375 0 
L 39.9375 0 
L 39.9375 31.546875 
Q 39.9375 36.921875 38.90625 39.578125 
Q 37.890625 42.234375 35.28125 43.8125 
Q 32.671875 45.40625 29.15625 45.40625 
Q 23.53125 45.40625 19.453125 41.84375 
Q 15.375 38.28125 15.375 28.328125 
L 15.375 0 
z
" id="ArialMT-110"/>
       <path d="M 25.921875 0 
L 25.921875 63.140625 
L 2.34375 63.140625 
L 2.34375 71.578125 
L 59.078125 71.578125 
L 59.078125 63.140625 
L 35.40625 63.140625 
L 35.40625 0 
z
" id="ArialMT-84"/>
       <path d="M 6.5 0 
L 6.5 51.859375 
L 14.40625 51.859375 
L 14.40625 44 
Q 17.4375 49.515625 20 51.265625 
Q 22.5625 53.03125 25.640625 53.03125 
Q 30.078125 53.03125 34.671875 50.203125 
L 31.640625 42.046875 
Q 28.421875 43.953125 25.203125 43.953125 
Q 22.3125 43.953125 20.015625 42.21875 
Q 17.71875 40.484375 16.75 37.40625 
Q 15.28125 32.71875 15.28125 27.15625 
L 15.28125 0 
z
" id="ArialMT-114"/>
       <path d="M 21 0 
L 1.265625 51.859375 
L 10.546875 51.859375 
L 21.6875 20.796875 
Q 23.484375 15.765625 25 10.359375 
Q 26.171875 14.453125 28.265625 20.21875 
L 39.796875 51.859375 
L 48.828125 51.859375 
L 29.203125 0 
z
" id="ArialMT-118"/>
       <path d="M 6.59375 0 
L 6.59375 51.859375 
L 14.453125 51.859375 
L 14.453125 44.578125 
Q 16.890625 48.390625 20.9375 50.703125 
Q 25 53.03125 30.171875 53.03125 
Q 35.9375 53.03125 39.625 50.640625 
Q 43.3125 48.25 44.828125 43.953125 
Q 50.984375 53.03125 60.84375 53.03125 
Q 68.5625 53.03125 72.703125 48.75 
Q 76.859375 44.484375 76.859375 35.59375 
L 76.859375 0 
L 68.109375 0 
L 68.109375 32.671875 
Q 68.109375 37.9375 67.25 40.25 
Q 66.40625 42.578125 64.15625 43.984375 
Q 61.921875 45.40625 58.890625 45.40625 
Q 53.421875 45.40625 49.796875 41.765625 
Q 46.1875 38.140625 46.1875 30.125 
L 46.1875 0 
L 37.40625 0 
L 37.40625 33.6875 
Q 37.40625 39.546875 35.25 42.46875 
Q 33.109375 45.40625 28.21875 45.40625 
Q 24.515625 45.40625 21.359375 43.453125 
Q 18.21875 41.5 16.796875 37.734375 
Q 15.375 33.984375 15.375 26.90625 
L 15.375 0 
z
" id="ArialMT-109"/>
       <path d="M 23.390625 -21.046875 
Q 16.109375 -11.859375 11.078125 0.4375 
Q 6.0625 12.75 6.0625 25.921875 
Q 6.0625 37.546875 9.8125 48.1875 
Q 14.203125 60.546875 23.390625 72.796875 
L 29.6875 72.796875 
Q 23.78125 62.640625 21.875 58.296875 
Q 18.890625 51.5625 17.1875 44.234375 
Q 15.09375 35.109375 15.09375 25.875 
Q 15.09375 2.390625 29.6875 -21.046875 
z
" id="ArialMT-40"/>
       <path d="M 40.578125 0 
L 40.578125 7.625 
Q 34.515625 -1.171875 24.125 -1.171875 
Q 19.53125 -1.171875 15.546875 0.578125 
Q 11.578125 2.34375 9.640625 5 
Q 7.71875 7.671875 6.9375 11.53125 
Q 6.390625 14.109375 6.390625 19.734375 
L 6.390625 51.859375 
L 15.1875 51.859375 
L 15.1875 23.09375 
Q 15.1875 16.21875 15.71875 13.8125 
Q 16.546875 10.359375 19.234375 8.375 
Q 21.921875 6.390625 25.875 6.390625 
Q 29.828125 6.390625 33.296875 8.421875 
Q 36.765625 10.453125 38.203125 13.9375 
Q 39.65625 17.4375 39.65625 24.078125 
L 39.65625 51.859375 
L 48.4375 51.859375 
L 48.4375 0 
z
" id="ArialMT-117"/>
       <path d="M 25.78125 7.859375 
L 27.046875 0.09375 
Q 23.34375 -0.6875 20.40625 -0.6875 
Q 15.625 -0.6875 12.984375 0.828125 
Q 10.359375 2.34375 9.28125 4.8125 
Q 8.203125 7.28125 8.203125 15.1875 
L 8.203125 45.015625 
L 1.765625 45.015625 
L 1.765625 51.859375 
L 8.203125 51.859375 
L 8.203125 64.703125 
L 16.9375 69.96875 
L 16.9375 51.859375 
L 25.78125 51.859375 
L 25.78125 45.015625 
L 16.9375 45.015625 
L 16.9375 14.703125 
Q 16.9375 10.9375 17.40625 9.859375 
Q 17.875 8.796875 18.921875 8.15625 
Q 19.96875 7.515625 21.921875 7.515625 
Q 23.390625 7.515625 25.78125 7.859375 
z
" id="ArialMT-116"/>
       <path d="M 3.078125 15.484375 
L 11.765625 16.84375 
Q 12.5 11.625 15.84375 8.84375 
Q 19.1875 6.0625 25.203125 6.0625 
Q 31.25 6.0625 34.171875 8.515625 
Q 37.109375 10.984375 37.109375 14.3125 
Q 37.109375 17.28125 34.515625 19 
Q 32.71875 20.171875 25.53125 21.96875 
Q 15.875 24.421875 12.140625 26.203125 
Q 8.40625 27.984375 6.46875 31.125 
Q 4.546875 34.28125 4.546875 38.09375 
Q 4.546875 41.546875 6.125 44.5 
Q 7.71875 47.46875 10.453125 49.421875 
Q 12.5 50.921875 16.03125 51.96875 
Q 19.578125 53.03125 23.640625 53.03125 
Q 29.734375 53.03125 34.34375 51.265625 
Q 38.96875 49.515625 41.15625 46.5 
Q 43.359375 43.5 44.1875 38.484375 
L 35.59375 37.3125 
Q 35.015625 41.3125 32.203125 43.546875 
Q 29.390625 45.796875 24.265625 45.796875 
Q 18.21875 45.796875 15.625 43.796875 
Q 13.03125 41.796875 13.03125 39.109375 
Q 13.03125 37.40625 14.109375 36.03125 
Q 15.1875 34.625 17.484375 33.6875 
Q 18.796875 33.203125 25.25 31.453125 
Q 34.578125 28.953125 38.25 27.359375 
Q 41.9375 25.78125 44.03125 22.75 
Q 46.140625 19.734375 46.140625 15.234375 
Q 46.140625 10.84375 43.578125 6.953125 
Q 41.015625 3.078125 36.171875 0.953125 
Q 31.34375 -1.171875 25.25 -1.171875 
Q 15.140625 -1.171875 9.84375 3.03125 
Q 4.546875 7.234375 3.078125 15.484375 
z
" id="ArialMT-115"/>
       <path d="M 12.359375 -21.046875 
L 6.0625 -21.046875 
Q 20.65625 2.390625 20.65625 25.875 
Q 20.65625 35.0625 18.5625 44.09375 
Q 16.890625 51.421875 13.921875 58.15625 
Q 12.015625 62.546875 6.0625 72.796875 
L 12.359375 72.796875 
Q 21.53125 60.546875 25.921875 48.1875 
Q 29.6875 37.546875 29.6875 25.921875 
Q 29.6875 12.75 24.625 0.4375 
Q 19.578125 -11.859375 12.359375 -21.046875 
z
" id="ArialMT-41"/>
      </defs>
      <g style="fill:#262626;" transform="translate(62.969052 504.595535)rotate(-50)scale(0.1 -0.1)">
       <use xlink:href="#ArialMT-68"/>
       <use x="72.216797" xlink:href="#ArialMT-97"/>
       <use x="127.832031" xlink:href="#ArialMT-105"/>
       <use x="150.048828" xlink:href="#ArialMT-108"/>
       <use x="172.265625" xlink:href="#ArialMT-121"/>
       <use x="222.265625" xlink:href="#ArialMT-32"/>
       <use x="250.048828" xlink:href="#ArialMT-77"/>
       <use x="333.349609" xlink:href="#ArialMT-101"/>
       <use x="388.964844" xlink:href="#ArialMT-97"/>
       <use x="444.580078" xlink:href="#ArialMT-110"/>
       <use x="500.195312" xlink:href="#ArialMT-32"/>
       <use x="527.962891" xlink:href="#ArialMT-84"/>
       <use x="589" xlink:href="#ArialMT-114"/>
       <use x="622.300781" xlink:href="#ArialMT-97"/>
       <use x="677.916016" xlink:href="#ArialMT-118"/>
       <use x="727.916016" xlink:href="#ArialMT-101"/>
       <use x="783.53125" xlink:href="#ArialMT-108"/>
       <use x="805.748047" xlink:href="#ArialMT-32"/>
       <use x="833.515625" xlink:href="#ArialMT-84"/>
       <use x="894.552734" xlink:href="#ArialMT-105"/>
       <use x="916.769531" xlink:href="#ArialMT-109"/>
       <use x="1000.070312" xlink:href="#ArialMT-101"/>
       <use x="1055.685547" xlink:href="#ArialMT-32"/>
       <use x="1083.46875" xlink:href="#ArialMT-40"/>
       <use x="1116.769531" xlink:href="#ArialMT-77"/>
       <use x="1200.070312" xlink:href="#ArialMT-105"/>
       <use x="1222.287109" xlink:href="#ArialMT-110"/>
       <use x="1277.902344" xlink:href="#ArialMT-117"/>
       <use x="1333.517578" xlink:href="#ArialMT-116"/>
       <use x="1361.300781" xlink:href="#ArialMT-101"/>
       <use x="1416.916016" xlink:href="#ArialMT-115"/>
       <use x="1466.916016" xlink:href="#ArialMT-41"/>
      </g>
     </g>
    </g>
    <g id="xtick_2">
     <g id="line2d_2">
      <path clip-path="url(#p7ed0f8c9f9)" d="M 183.6 378 
L 183.6 51.84 
" style="fill:none;stroke:#cccccc;stroke-linecap:round;stroke-width:0.8;"/>
     </g>
     <g id="text_2">
      <!-- AM Mean Travel Time (Minutes) -->
      <defs>
       <path d="M -0.140625 0 
L 27.34375 71.578125 
L 37.546875 71.578125 
L 66.84375 0 
L 56.0625 0 
L 47.703125 21.6875 
L 17.78125 21.6875 
L 9.90625 0 
z
M 20.515625 29.390625 
L 44.78125 29.390625 
L 37.3125 49.21875 
Q 33.890625 58.25 32.234375 64.0625 
Q 30.859375 57.171875 28.375 50.390625 
z
" id="ArialMT-65"/>
      </defs>
      <g style="fill:#262626;" transform="translate(139.691624 499.059667)rotate(-50)scale(0.1 -0.1)">
       <use xlink:href="#ArialMT-65"/>
       <use x="66.699219" xlink:href="#ArialMT-77"/>
       <use x="150" xlink:href="#ArialMT-32"/>
       <use x="177.783203" xlink:href="#ArialMT-77"/>
       <use x="261.083984" xlink:href="#ArialMT-101"/>
       <use x="316.699219" xlink:href="#ArialMT-97"/>
       <use x="372.314453" xlink:href="#ArialMT-110"/>
       <use x="427.929688" xlink:href="#ArialMT-32"/>
       <use x="455.697266" xlink:href="#ArialMT-84"/>
       <use x="516.734375" xlink:href="#ArialMT-114"/>
       <use x="550.035156" xlink:href="#ArialMT-97"/>
       <use x="605.650391" xlink:href="#ArialMT-118"/>
       <use x="655.650391" xlink:href="#ArialMT-101"/>
       <use x="711.265625" xlink:href="#ArialMT-108"/>
       <use x="733.482422" xlink:href="#ArialMT-32"/>
       <use x="761.25" xlink:href="#ArialMT-84"/>
       <use x="822.287109" xlink:href="#ArialMT-105"/>
       <use x="844.503906" xlink:href="#ArialMT-109"/>
       <use x="927.804688" xlink:href="#ArialMT-101"/>
       <use x="983.419922" xlink:href="#ArialMT-32"/>
       <use x="1011.203125" xlink:href="#ArialMT-40"/>
       <use x="1044.503906" xlink:href="#ArialMT-77"/>
       <use x="1127.804688" xlink:href="#ArialMT-105"/>
       <use x="1150.021484" xlink:href="#ArialMT-110"/>
       <use x="1205.636719" xlink:href="#ArialMT-117"/>
       <use x="1261.251953" xlink:href="#ArialMT-116"/>
       <use x="1289.035156" xlink:href="#ArialMT-101"/>
       <use x="1344.650391" xlink:href="#ArialMT-115"/>
       <use x="1394.650391" xlink:href="#ArialMT-41"/>
      </g>
     </g>
    </g>
    <g id="xtick_3">
     <g id="line2d_3">
      <path clip-path="url(#p7ed0f8c9f9)" d="M 258 378 
L 258 51.84 
" style="fill:none;stroke:#cccccc;stroke-linecap:round;stroke-width:0.8;"/>
     </g>
     <g id="text_3">
      <!-- PM Mean Travel Time (Minutes) -->
      <defs>
       <path d="M 7.71875 0 
L 7.71875 71.578125 
L 34.71875 71.578125 
Q 41.84375 71.578125 45.609375 70.90625 
Q 50.875 70.015625 54.4375 67.546875 
Q 58.015625 65.09375 60.1875 60.640625 
Q 62.359375 56.203125 62.359375 50.875 
Q 62.359375 41.75 56.546875 35.421875 
Q 50.734375 29.109375 35.546875 29.109375 
L 17.1875 29.109375 
L 17.1875 0 
z
M 17.1875 37.546875 
L 35.6875 37.546875 
Q 44.875 37.546875 48.734375 40.96875 
Q 52.59375 44.390625 52.59375 50.59375 
Q 52.59375 55.078125 50.3125 58.265625 
Q 48.046875 61.46875 44.34375 62.5 
Q 41.9375 63.140625 35.5 63.140625 
L 17.1875 63.140625 
z
" id="ArialMT-80"/>
      </defs>
      <g style="fill:#262626;" transform="translate(214.091624 499.059667)rotate(-50)scale(0.1 -0.1)">
       <use xlink:href="#ArialMT-80"/>
       <use x="66.699219" xlink:href="#ArialMT-77"/>
       <use x="150" xlink:href="#ArialMT-32"/>
       <use x="177.783203" xlink:href="#ArialMT-77"/>
       <use x="261.083984" xlink:href="#ArialMT-101"/>
       <use x="316.699219" xlink:href="#ArialMT-97"/>
       <use x="372.314453" xlink:href="#ArialMT-110"/>
       <use x="427.929688" xlink:href="#ArialMT-32"/>
       <use x="455.697266" xlink:href="#ArialMT-84"/>
       <use x="516.734375" xlink:href="#ArialMT-114"/>
       <use x="550.035156" xlink:href="#ArialMT-97"/>
       <use x="605.650391" xlink:href="#ArialMT-118"/>
       <use x="655.650391" xlink:href="#ArialMT-101"/>
       <use x="711.265625" xlink:href="#ArialMT-108"/>
       <use x="733.482422" xlink:href="#ArialMT-32"/>
       <use x="761.25" xlink:href="#ArialMT-84"/>
       <use x="822.287109" xlink:href="#ArialMT-105"/>
       <use x="844.503906" xlink:href="#ArialMT-109"/>
       <use x="927.804688" xlink:href="#ArialMT-101"/>
       <use x="983.419922" xlink:href="#ArialMT-32"/>
       <use x="1011.203125" xlink:href="#ArialMT-40"/>
       <use x="1044.503906" xlink:href="#ArialMT-77"/>
       <use x="1127.804688" xlink:href="#ArialMT-105"/>
       <use x="1150.021484" xlink:href="#ArialMT-110"/>
       <use x="1205.636719" xlink:href="#ArialMT-117"/>
       <use x="1261.251953" xlink:href="#ArialMT-116"/>
       <use x="1289.035156" xlink:href="#ArialMT-101"/>
       <use x="1344.650391" xlink:href="#ArialMT-115"/>
       <use x="1394.650391" xlink:href="#ArialMT-41"/>
      </g>
     </g>
    </g>
    <g id="xtick_4">
     <g id="line2d_4">
      <path clip-path="url(#p7ed0f8c9f9)" d="M 332.4 378 
L 332.4 51.84 
" style="fill:none;stroke:#cccccc;stroke-linecap:round;stroke-width:0.8;"/>
     </g>
     <g id="text_4">
      <!-- Midday Mean Travel Time (Minutes) -->
      <defs>
       <path d="M 40.234375 0 
L 40.234375 6.546875 
Q 35.296875 -1.171875 25.734375 -1.171875 
Q 19.53125 -1.171875 14.328125 2.25 
Q 9.125 5.671875 6.265625 11.796875 
Q 3.421875 17.921875 3.421875 25.875 
Q 3.421875 33.640625 6 39.96875 
Q 8.59375 46.296875 13.765625 49.65625 
Q 18.953125 53.03125 25.34375 53.03125 
Q 30.03125 53.03125 33.6875 51.046875 
Q 37.359375 49.078125 39.65625 45.90625 
L 39.65625 71.578125 
L 48.390625 71.578125 
L 48.390625 0 
z
M 12.453125 25.875 
Q 12.453125 15.921875 16.640625 10.984375 
Q 20.84375 6.0625 26.5625 6.0625 
Q 32.328125 6.0625 36.34375 10.765625 
Q 40.375 15.484375 40.375 25.140625 
Q 40.375 35.796875 36.265625 40.765625 
Q 32.171875 45.75 26.171875 45.75 
Q 20.3125 45.75 16.375 40.96875 
Q 12.453125 36.1875 12.453125 25.875 
z
" id="ArialMT-100"/>
      </defs>
      <g style="fill:#262626;" transform="translate(282.952603 512.261964)rotate(-50)scale(0.1 -0.1)">
       <use xlink:href="#ArialMT-77"/>
       <use x="83.300781" xlink:href="#ArialMT-105"/>
       <use x="105.517578" xlink:href="#ArialMT-100"/>
       <use x="161.132812" xlink:href="#ArialMT-100"/>
       <use x="216.748047" xlink:href="#ArialMT-97"/>
       <use x="272.363281" xlink:href="#ArialMT-121"/>
       <use x="322.363281" xlink:href="#ArialMT-32"/>
       <use x="350.146484" xlink:href="#ArialMT-77"/>
       <use x="433.447266" xlink:href="#ArialMT-101"/>
       <use x="489.0625" xlink:href="#ArialMT-97"/>
       <use x="544.677734" xlink:href="#ArialMT-110"/>
       <use x="600.292969" xlink:href="#ArialMT-32"/>
       <use x="628.060547" xlink:href="#ArialMT-84"/>
       <use x="689.097656" xlink:href="#ArialMT-114"/>
       <use x="722.398438" xlink:href="#ArialMT-97"/>
       <use x="778.013672" xlink:href="#ArialMT-118"/>
       <use x="828.013672" xlink:href="#ArialMT-101"/>
       <use x="883.628906" xlink:href="#ArialMT-108"/>
       <use x="905.845703" xlink:href="#ArialMT-32"/>
       <use x="933.613281" xlink:href="#ArialMT-84"/>
       <use x="994.650391" xlink:href="#ArialMT-105"/>
       <use x="1016.867188" xlink:href="#ArialMT-109"/>
       <use x="1100.167969" xlink:href="#ArialMT-101"/>
       <use x="1155.783203" xlink:href="#ArialMT-32"/>
       <use x="1183.566406" xlink:href="#ArialMT-40"/>
       <use x="1216.867188" xlink:href="#ArialMT-77"/>
       <use x="1300.167969" xlink:href="#ArialMT-105"/>
       <use x="1322.384766" xlink:href="#ArialMT-110"/>
       <use x="1378" xlink:href="#ArialMT-117"/>
       <use x="1433.615234" xlink:href="#ArialMT-116"/>
       <use x="1461.398438" xlink:href="#ArialMT-101"/>
       <use x="1517.013672" xlink:href="#ArialMT-115"/>
       <use x="1567.013672" xlink:href="#ArialMT-41"/>
      </g>
     </g>
    </g>
    <g id="xtick_5">
     <g id="line2d_5">
      <path clip-path="url(#p7ed0f8c9f9)" d="M 406.8 378 
L 406.8 51.84 
" style="fill:none;stroke:#cccccc;stroke-linecap:round;stroke-width:0.8;"/>
     </g>
     <g id="text_5">
      <!-- Evening Mean Travel Time (Minutes) -->
      <defs>
       <path d="M 7.90625 0 
L 7.90625 71.578125 
L 59.671875 71.578125 
L 59.671875 63.140625 
L 17.390625 63.140625 
L 17.390625 41.21875 
L 56.984375 41.21875 
L 56.984375 32.8125 
L 17.390625 32.8125 
L 17.390625 8.453125 
L 61.328125 8.453125 
L 61.328125 0 
z
" id="ArialMT-69"/>
       <path d="M 4.984375 -4.296875 
L 13.53125 -5.5625 
Q 14.0625 -9.515625 16.5 -11.328125 
Q 19.78125 -13.765625 25.4375 -13.765625 
Q 31.546875 -13.765625 34.859375 -11.328125 
Q 38.1875 -8.890625 39.359375 -4.5 
Q 40.046875 -1.8125 39.984375 6.78125 
Q 34.234375 0 25.640625 0 
Q 14.9375 0 9.078125 7.71875 
Q 3.21875 15.4375 3.21875 26.21875 
Q 3.21875 33.640625 5.90625 39.90625 
Q 8.59375 46.1875 13.6875 49.609375 
Q 18.796875 53.03125 25.6875 53.03125 
Q 34.859375 53.03125 40.828125 45.609375 
L 40.828125 51.859375 
L 48.921875 51.859375 
L 48.921875 7.03125 
Q 48.921875 -5.078125 46.453125 -10.125 
Q 44 -15.1875 38.640625 -18.109375 
Q 33.296875 -21.046875 25.484375 -21.046875 
Q 16.21875 -21.046875 10.5 -16.875 
Q 4.78125 -12.703125 4.984375 -4.296875 
z
M 12.25 26.859375 
Q 12.25 16.65625 16.296875 11.96875 
Q 20.359375 7.28125 26.46875 7.28125 
Q 32.515625 7.28125 36.609375 11.9375 
Q 40.71875 16.609375 40.71875 26.5625 
Q 40.71875 36.078125 36.5 40.90625 
Q 32.28125 45.75 26.3125 45.75 
Q 20.453125 45.75 16.34375 40.984375 
Q 12.25 36.234375 12.25 26.859375 
z
" id="ArialMT-103"/>
      </defs>
      <g style="fill:#262626;" transform="translate(356.098665 515.250734)rotate(-50)scale(0.1 -0.1)">
       <use xlink:href="#ArialMT-69"/>
       <use x="66.699219" xlink:href="#ArialMT-118"/>
       <use x="116.699219" xlink:href="#ArialMT-101"/>
       <use x="172.314453" xlink:href="#ArialMT-110"/>
       <use x="227.929688" xlink:href="#ArialMT-105"/>
       <use x="250.146484" xlink:href="#ArialMT-110"/>
       <use x="305.761719" xlink:href="#ArialMT-103"/>
       <use x="361.376953" xlink:href="#ArialMT-32"/>
       <use x="389.160156" xlink:href="#ArialMT-77"/>
       <use x="472.460938" xlink:href="#ArialMT-101"/>
       <use x="528.076172" xlink:href="#ArialMT-97"/>
       <use x="583.691406" xlink:href="#ArialMT-110"/>
       <use x="639.306641" xlink:href="#ArialMT-32"/>
       <use x="667.074219" xlink:href="#ArialMT-84"/>
       <use x="728.111328" xlink:href="#ArialMT-114"/>
       <use x="761.412109" xlink:href="#ArialMT-97"/>
       <use x="817.027344" xlink:href="#ArialMT-118"/>
       <use x="867.027344" xlink:href="#ArialMT-101"/>
       <use x="922.642578" xlink:href="#ArialMT-108"/>
       <use x="944.859375" xlink:href="#ArialMT-32"/>
       <use x="972.626953" xlink:href="#ArialMT-84"/>
       <use x="1033.664062" xlink:href="#ArialMT-105"/>
       <use x="1055.880859" xlink:href="#ArialMT-109"/>
       <use x="1139.181641" xlink:href="#ArialMT-101"/>
       <use x="1194.796875" xlink:href="#ArialMT-32"/>
       <use x="1222.580078" xlink:href="#ArialMT-40"/>
       <use x="1255.880859" xlink:href="#ArialMT-77"/>
       <use x="1339.181641" xlink:href="#ArialMT-105"/>
       <use x="1361.398438" xlink:href="#ArialMT-110"/>
       <use x="1417.013672" xlink:href="#ArialMT-117"/>
       <use x="1472.628906" xlink:href="#ArialMT-116"/>
       <use x="1500.412109" xlink:href="#ArialMT-101"/>
       <use x="1556.027344" xlink:href="#ArialMT-115"/>
       <use x="1606.027344" xlink:href="#ArialMT-41"/>
      </g>
     </g>
    </g>
    <g id="xtick_6">
     <g id="line2d_6">
      <path clip-path="url(#p7ed0f8c9f9)" d="M 481.2 378 
L 481.2 51.84 
" style="fill:none;stroke:#cccccc;stroke-linecap:round;stroke-width:0.8;"/>
     </g>
     <g id="text_6">
      <!-- Early Morning Mean Travel Time (Minutes) -->
      <defs>
       <path d="M 3.328125 25.921875 
Q 3.328125 40.328125 11.328125 47.265625 
Q 18.015625 53.03125 27.640625 53.03125 
Q 38.328125 53.03125 45.109375 46.015625 
Q 51.90625 39.015625 51.90625 26.65625 
Q 51.90625 16.65625 48.90625 10.90625 
Q 45.90625 5.171875 40.15625 2 
Q 34.421875 -1.171875 27.640625 -1.171875 
Q 16.75 -1.171875 10.03125 5.8125 
Q 3.328125 12.796875 3.328125 25.921875 
z
M 12.359375 25.921875 
Q 12.359375 15.96875 16.703125 11.015625 
Q 21.046875 6.0625 27.640625 6.0625 
Q 34.1875 6.0625 38.53125 11.03125 
Q 42.875 16.015625 42.875 26.21875 
Q 42.875 35.84375 38.5 40.796875 
Q 34.125 45.75 27.640625 45.75 
Q 21.046875 45.75 16.703125 40.8125 
Q 12.359375 35.890625 12.359375 25.921875 
z
" id="ArialMT-111"/>
      </defs>
      <g style="fill:#262626;" transform="translate(422.287053 534.82317)rotate(-50)scale(0.1 -0.1)">
       <use xlink:href="#ArialMT-69"/>
       <use x="66.699219" xlink:href="#ArialMT-97"/>
       <use x="122.314453" xlink:href="#ArialMT-114"/>
       <use x="155.615234" xlink:href="#ArialMT-108"/>
       <use x="177.832031" xlink:href="#ArialMT-121"/>
       <use x="227.832031" xlink:href="#ArialMT-32"/>
       <use x="255.615234" xlink:href="#ArialMT-77"/>
       <use x="338.916016" xlink:href="#ArialMT-111"/>
       <use x="394.53125" xlink:href="#ArialMT-114"/>
       <use x="427.832031" xlink:href="#ArialMT-110"/>
       <use x="483.447266" xlink:href="#ArialMT-105"/>
       <use x="505.664062" xlink:href="#ArialMT-110"/>
       <use x="561.279297" xlink:href="#ArialMT-103"/>
       <use x="616.894531" xlink:href="#ArialMT-32"/>
       <use x="644.677734" xlink:href="#ArialMT-77"/>
       <use x="727.978516" xlink:href="#ArialMT-101"/>
       <use x="783.59375" xlink:href="#ArialMT-97"/>
       <use x="839.208984" xlink:href="#ArialMT-110"/>
       <use x="894.824219" xlink:href="#ArialMT-32"/>
       <use x="922.591797" xlink:href="#ArialMT-84"/>
       <use x="983.628906" xlink:href="#ArialMT-114"/>
       <use x="1016.929688" xlink:href="#ArialMT-97"/>
       <use x="1072.544922" xlink:href="#ArialMT-118"/>
       <use x="1122.544922" xlink:href="#ArialMT-101"/>
       <use x="1178.160156" xlink:href="#ArialMT-108"/>
       <use x="1200.376953" xlink:href="#ArialMT-32"/>
       <use x="1228.144531" xlink:href="#ArialMT-84"/>
       <use x="1289.181641" xlink:href="#ArialMT-105"/>
       <use x="1311.398438" xlink:href="#ArialMT-109"/>
       <use x="1394.699219" xlink:href="#ArialMT-101"/>
       <use x="1450.314453" xlink:href="#ArialMT-32"/>
       <use x="1478.097656" xlink:href="#ArialMT-40"/>
       <use x="1511.398438" xlink:href="#ArialMT-77"/>
       <use x="1594.699219" xlink:href="#ArialMT-105"/>
       <use x="1616.916016" xlink:href="#ArialMT-110"/>
       <use x="1672.53125" xlink:href="#ArialMT-117"/>
       <use x="1728.146484" xlink:href="#ArialMT-116"/>
       <use x="1755.929688" xlink:href="#ArialMT-101"/>
       <use x="1811.544922" xlink:href="#ArialMT-115"/>
       <use x="1861.544922" xlink:href="#ArialMT-41"/>
      </g>
     </g>
    </g>
    <g id="text_7">
     <!-- Time (Minutes) -->
     <g style="fill:#262626;" transform="translate(261.867188 547.455724)scale(0.1 -0.1)">
      <use xlink:href="#ArialMT-84"/>
      <use x="61.037109" xlink:href="#ArialMT-105"/>
      <use x="83.253906" xlink:href="#ArialMT-109"/>
      <use x="166.554688" xlink:href="#ArialMT-101"/>
      <use x="222.169922" xlink:href="#ArialMT-32"/>
      <use x="249.953125" xlink:href="#ArialMT-40"/>
      <use x="283.253906" xlink:href="#ArialMT-77"/>
      <use x="366.554688" xlink:href="#ArialMT-105"/>
      <use x="388.771484" xlink:href="#ArialMT-110"/>
      <use x="444.386719" xlink:href="#ArialMT-117"/>
      <use x="500.001953" xlink:href="#ArialMT-116"/>
      <use x="527.785156" xlink:href="#ArialMT-101"/>
      <use x="583.400391" xlink:href="#ArialMT-115"/>
      <use x="633.400391" xlink:href="#ArialMT-41"/>
     </g>
    </g>
   </g>
   <g id="matplotlib.axis_2">
    <g id="ytick_1">
     <g id="line2d_7">
      <path clip-path="url(#p7ed0f8c9f9)" d="M 72 328.530872 
L 518.4 328.530872 
" style="fill:none;stroke:#cccccc;stroke-linecap:round;stroke-width:0.8;"/>
     </g>
     <g id="text_8">
      <!-- 10 -->
      <defs>
       <path d="M 37.25 0 
L 28.46875 0 
L 28.46875 56 
Q 25.296875 52.984375 20.140625 49.953125 
Q 14.984375 46.921875 10.890625 45.40625 
L 10.890625 53.90625 
Q 18.265625 57.375 23.78125 62.296875 
Q 29.296875 67.234375 31.59375 71.875 
L 37.25 71.875 
z
" id="ArialMT-49"/>
       <path d="M 4.15625 35.296875 
Q 4.15625 48 6.765625 55.734375 
Q 9.375 63.484375 14.515625 67.671875 
Q 19.671875 71.875 27.484375 71.875 
Q 33.25 71.875 37.59375 69.546875 
Q 41.9375 67.234375 44.765625 62.859375 
Q 47.609375 58.5 49.21875 52.21875 
Q 50.828125 45.953125 50.828125 35.296875 
Q 50.828125 22.703125 48.234375 14.96875 
Q 45.65625 7.234375 40.5 3 
Q 35.359375 -1.21875 27.484375 -1.21875 
Q 17.140625 -1.21875 11.234375 6.203125 
Q 4.15625 15.140625 4.15625 35.296875 
z
M 13.1875 35.296875 
Q 13.1875 17.671875 17.3125 11.828125 
Q 21.4375 6 27.484375 6 
Q 33.546875 6 37.671875 11.859375 
Q 41.796875 17.71875 41.796875 35.296875 
Q 41.796875 52.984375 37.671875 58.78125 
Q 33.546875 64.59375 27.390625 64.59375 
Q 21.34375 64.59375 17.71875 59.46875 
Q 13.1875 52.9375 13.1875 35.296875 
z
" id="ArialMT-48"/>
      </defs>
      <g style="fill:#262626;" transform="translate(53.878125 332.109778)scale(0.1 -0.1)">
       <use xlink:href="#ArialMT-49"/>
       <use x="55.615234" xlink:href="#ArialMT-48"/>
      </g>
     </g>
    </g>
    <g id="ytick_2">
     <g id="line2d_8">
      <path clip-path="url(#p7ed0f8c9f9)" d="M 72 272.952785 
L 518.4 272.952785 
" style="fill:none;stroke:#cccccc;stroke-linecap:round;stroke-width:0.8;"/>
     </g>
     <g id="text_9">
      <!-- 20 -->
      <defs>
       <path d="M 50.34375 8.453125 
L 50.34375 0 
L 3.03125 0 
Q 2.9375 3.171875 4.046875 6.109375 
Q 5.859375 10.9375 9.828125 15.625 
Q 13.8125 20.3125 21.34375 26.46875 
Q 33.015625 36.03125 37.109375 41.625 
Q 41.21875 47.21875 41.21875 52.203125 
Q 41.21875 57.421875 37.46875 61 
Q 33.734375 64.59375 27.734375 64.59375 
Q 21.390625 64.59375 17.578125 60.78125 
Q 13.765625 56.984375 13.71875 50.25 
L 4.6875 51.171875 
Q 5.609375 61.28125 11.65625 66.578125 
Q 17.71875 71.875 27.9375 71.875 
Q 38.234375 71.875 44.234375 66.15625 
Q 50.25 60.453125 50.25 52 
Q 50.25 47.703125 48.484375 43.546875 
Q 46.734375 39.40625 42.65625 34.8125 
Q 38.578125 30.21875 29.109375 22.21875 
Q 21.1875 15.578125 18.9375 13.203125 
Q 16.703125 10.84375 15.234375 8.453125 
z
" id="ArialMT-50"/>
      </defs>
      <g style="fill:#262626;" transform="translate(53.878125 276.531691)scale(0.1 -0.1)">
       <use xlink:href="#ArialMT-50"/>
       <use x="55.615234" xlink:href="#ArialMT-48"/>
      </g>
     </g>
    </g>
    <g id="ytick_3">
     <g id="line2d_9">
      <path clip-path="url(#p7ed0f8c9f9)" d="M 72 217.374699 
L 518.4 217.374699 
" style="fill:none;stroke:#cccccc;stroke-linecap:round;stroke-width:0.8;"/>
     </g>
     <g id="text_10">
      <!-- 30 -->
      <defs>
       <path d="M 4.203125 18.890625 
L 12.984375 20.0625 
Q 14.5 12.59375 18.140625 9.296875 
Q 21.78125 6 27 6 
Q 33.203125 6 37.46875 10.296875 
Q 41.75 14.59375 41.75 20.953125 
Q 41.75 27 37.796875 30.921875 
Q 33.84375 34.859375 27.734375 34.859375 
Q 25.25 34.859375 21.53125 33.890625 
L 22.515625 41.609375 
Q 23.390625 41.5 23.921875 41.5 
Q 29.546875 41.5 34.03125 44.421875 
Q 38.53125 47.359375 38.53125 53.46875 
Q 38.53125 58.296875 35.25 61.46875 
Q 31.984375 64.65625 26.8125 64.65625 
Q 21.6875 64.65625 18.265625 61.421875 
Q 14.84375 58.203125 13.875 51.765625 
L 5.078125 53.328125 
Q 6.6875 62.15625 12.390625 67.015625 
Q 18.109375 71.875 26.609375 71.875 
Q 32.46875 71.875 37.390625 69.359375 
Q 42.328125 66.84375 44.9375 62.5 
Q 47.5625 58.15625 47.5625 53.265625 
Q 47.5625 48.640625 45.0625 44.828125 
Q 42.578125 41.015625 37.703125 38.765625 
Q 44.046875 37.3125 47.5625 32.6875 
Q 51.078125 28.078125 51.078125 21.140625 
Q 51.078125 11.765625 44.234375 5.25 
Q 37.40625 -1.265625 26.953125 -1.265625 
Q 17.53125 -1.265625 11.296875 4.34375 
Q 5.078125 9.96875 4.203125 18.890625 
z
" id="ArialMT-51"/>
      </defs>
      <g style="fill:#262626;" transform="translate(53.878125 220.953605)scale(0.1 -0.1)">
       <use xlink:href="#ArialMT-51"/>
       <use x="55.615234" xlink:href="#ArialMT-48"/>
      </g>
     </g>
    </g>
    <g id="ytick_4">
     <g id="line2d_10">
      <path clip-path="url(#p7ed0f8c9f9)" d="M 72 161.796612 
L 518.4 161.796612 
" style="fill:none;stroke:#cccccc;stroke-linecap:round;stroke-width:0.8;"/>
     </g>
     <g id="text_11">
      <!-- 40 -->
      <defs>
       <path d="M 32.328125 0 
L 32.328125 17.140625 
L 1.265625 17.140625 
L 1.265625 25.203125 
L 33.9375 71.578125 
L 41.109375 71.578125 
L 41.109375 25.203125 
L 50.78125 25.203125 
L 50.78125 17.140625 
L 41.109375 17.140625 
L 41.109375 0 
z
M 32.328125 25.203125 
L 32.328125 57.46875 
L 9.90625 25.203125 
z
" id="ArialMT-52"/>
      </defs>
      <g style="fill:#262626;" transform="translate(53.878125 165.375519)scale(0.1 -0.1)">
       <use xlink:href="#ArialMT-52"/>
       <use x="55.615234" xlink:href="#ArialMT-48"/>
      </g>
     </g>
    </g>
    <g id="ytick_5">
     <g id="line2d_11">
      <path clip-path="url(#p7ed0f8c9f9)" d="M 72 106.218526 
L 518.4 106.218526 
" style="fill:none;stroke:#cccccc;stroke-linecap:round;stroke-width:0.8;"/>
     </g>
     <g id="text_12">
      <!-- 50 -->
      <defs>
       <path d="M 4.15625 18.75 
L 13.375 19.53125 
Q 14.40625 12.796875 18.140625 9.390625 
Q 21.875 6 27.15625 6 
Q 33.5 6 37.890625 10.78125 
Q 42.28125 15.578125 42.28125 23.484375 
Q 42.28125 31 38.0625 35.34375 
Q 33.84375 39.703125 27 39.703125 
Q 22.75 39.703125 19.328125 37.765625 
Q 15.921875 35.84375 13.96875 32.765625 
L 5.71875 33.84375 
L 12.640625 70.609375 
L 48.25 70.609375 
L 48.25 62.203125 
L 19.671875 62.203125 
L 15.828125 42.96875 
Q 22.265625 47.46875 29.34375 47.46875 
Q 38.71875 47.46875 45.15625 40.96875 
Q 51.609375 34.46875 51.609375 24.265625 
Q 51.609375 14.546875 45.953125 7.46875 
Q 39.0625 -1.21875 27.15625 -1.21875 
Q 17.390625 -1.21875 11.203125 4.25 
Q 5.03125 9.71875 4.15625 18.75 
z
" id="ArialMT-53"/>
      </defs>
      <g style="fill:#262626;" transform="translate(53.878125 109.797432)scale(0.1 -0.1)">
       <use xlink:href="#ArialMT-53"/>
       <use x="55.615234" xlink:href="#ArialMT-48"/>
      </g>
     </g>
    </g>
   </g>
   <g id="line2d_12">
    <path clip-path="url(#p7ed0f8c9f9)" d="M 90.6 336.774954 
L 127.8 336.774954 
L 127.8 317.229994 
L 90.6 317.229994 
L 90.6 336.774954 
" style="fill:none;stroke:#a1c9f4;stroke-linecap:round;"/>
   </g>
   <g id="line2d_13">
    <path clip-path="url(#p7ed0f8c9f9)" d="M 109.2 336.774954 
L 109.2 354.467312 
" style="fill:none;stroke:#a1c9f4;stroke-linecap:round;"/>
   </g>
   <g id="line2d_14">
    <path clip-path="url(#p7ed0f8c9f9)" d="M 109.2 317.229994 
L 109.2 287.958869 
" style="fill:none;stroke:#a1c9f4;stroke-linecap:round;"/>
   </g>
   <g id="line2d_15">
    <path clip-path="url(#p7ed0f8c9f9)" d="M 99.9 354.467312 
L 118.5 354.467312 
" style="fill:none;stroke:#000000;stroke-linecap:round;"/>
   </g>
   <g id="line2d_16">
    <path clip-path="url(#p7ed0f8c9f9)" d="M 99.9 287.958869 
L 118.5 287.958869 
" style="fill:none;stroke:#000000;stroke-linecap:round;"/>
   </g>
   <g id="line2d_17">
    <defs>
     <path d="M 0 3 
C 0.795609 3 1.55874 2.683901 2.12132 2.12132 
C 2.683901 1.55874 3 0.795609 3 0 
C 3 -0.795609 2.683901 -1.55874 2.12132 -2.12132 
C 1.55874 -2.683901 0.795609 -3 0 -3 
C -0.795609 -3 -1.55874 -2.683901 -2.12132 -2.12132 
C -2.683901 -1.55874 -3 -0.795609 -3 0 
C -3 0.795609 -2.683901 1.55874 -2.12132 2.12132 
C -1.55874 2.683901 -0.795609 3 0 3 
z
" id="m43e6c329ed" style="stroke:#000000;"/>
    </defs>
    <g clip-path="url(#p7ed0f8c9f9)">
     <use style="fill-opacity:0;stroke:#000000;" x="109.2" xlink:href="#m43e6c329ed" y="281.196868"/>
     <use style="fill-opacity:0;stroke:#000000;" x="109.2" xlink:href="#m43e6c329ed" y="282.123169"/>
     <use style="fill-opacity:0;stroke:#000000;" x="109.2" xlink:href="#m43e6c329ed" y="287.217827"/>
     <use style="fill-opacity:0;stroke:#000000;" x="109.2" xlink:href="#m43e6c329ed" y="279.066375"/>
     <use style="fill-opacity:0;stroke:#000000;" x="109.2" xlink:href="#m43e6c329ed" y="228.860837"/>
     <use style="fill-opacity:0;stroke:#000000;" x="109.2" xlink:href="#m43e6c329ed" y="287.310458"/>
     <use style="fill-opacity:0;stroke:#000000;" x="109.2" xlink:href="#m43e6c329ed" y="275.546429"/>
     <use style="fill-opacity:0;stroke:#000000;" x="109.2" xlink:href="#m43e6c329ed" y="259.891935"/>
     <use style="fill-opacity:0;stroke:#000000;" x="109.2" xlink:href="#m43e6c329ed" y="279.066375"/>
     <use style="fill-opacity:0;stroke:#000000;" x="109.2" xlink:href="#m43e6c329ed" y="286.106266"/>
     <use style="fill-opacity:0;stroke:#000000;" x="109.2" xlink:href="#m43e6c329ed" y="284.624183"/>
     <use style="fill-opacity:0;stroke:#000000;" x="109.2" xlink:href="#m43e6c329ed" y="249.332098"/>
     <use style="fill-opacity:0;stroke:#000000;" x="109.2" xlink:href="#m43e6c329ed" y="283.512622"/>
     <use style="fill-opacity:0;stroke:#000000;" x="109.2" xlink:href="#m43e6c329ed" y="285.365225"/>
     <use style="fill-opacity:0;stroke:#000000;" x="109.2" xlink:href="#m43e6c329ed" y="261.374017"/>
     <use style="fill-opacity:0;stroke:#000000;" x="109.2" xlink:href="#m43e6c329ed" y="221.265165"/>
     <use style="fill-opacity:0;stroke:#000000;" x="109.2" xlink:href="#m43e6c329ed" y="185.69519"/>
     <use style="fill-opacity:0;stroke:#000000;" x="109.2" xlink:href="#m43e6c329ed" y="286.939937"/>
     <use style="fill-opacity:0;stroke:#000000;" x="109.2" xlink:href="#m43e6c329ed" y="285.921005"/>
     <use style="fill-opacity:0;stroke:#000000;" x="109.2" xlink:href="#m43e6c329ed" y="285.735745"/>
     <use style="fill-opacity:0;stroke:#000000;" x="109.2" xlink:href="#m43e6c329ed" y="186.15834"/>
     <use style="fill-opacity:0;stroke:#000000;" x="109.2" xlink:href="#m43e6c329ed" y="219.597822"/>
     <use style="fill-opacity:0;stroke:#000000;" x="109.2" xlink:href="#m43e6c329ed" y="276.28747"/>
     <use style="fill-opacity:0;stroke:#000000;" x="109.2" xlink:href="#m43e6c329ed" y="279.622156"/>
    </g>
   </g>
   <g id="line2d_18">
    <path clip-path="url(#p7ed0f8c9f9)" d="M 165 343.050647 
L 202.2 343.050647 
L 202.2 318.526816 
L 165 318.526816 
L 165 343.050647 
" style="fill:none;stroke:#a1c9f4;stroke-linecap:round;"/>
   </g>
   <g id="line2d_19">
    <path clip-path="url(#p7ed0f8c9f9)" d="M 183.6 343.050647 
L 183.6 362.433504 
" style="fill:none;stroke:#a1c9f4;stroke-linecap:round;"/>
   </g>
   <g id="line2d_20">
    <path clip-path="url(#p7ed0f8c9f9)" d="M 183.6 318.526816 
L 183.6 283.049471 
" style="fill:none;stroke:#a1c9f4;stroke-linecap:round;"/>
   </g>
   <g id="line2d_21">
    <path clip-path="url(#p7ed0f8c9f9)" d="M 174.3 362.433504 
L 192.9 362.433504 
" style="fill:none;stroke:#000000;stroke-linecap:round;"/>
   </g>
   <g id="line2d_22">
    <path clip-path="url(#p7ed0f8c9f9)" d="M 174.3 283.049471 
L 192.9 283.049471 
" style="fill:none;stroke:#000000;stroke-linecap:round;"/>
   </g>
   <g id="line2d_23">
    <g clip-path="url(#p7ed0f8c9f9)">
     <use style="fill-opacity:0;stroke:#000000;" x="183.6" xlink:href="#m43e6c329ed" y="266.468675"/>
     <use style="fill-opacity:0;stroke:#000000;" x="183.6" xlink:href="#m43e6c329ed" y="224.044069"/>
     <use style="fill-opacity:0;stroke:#000000;" x="183.6" xlink:href="#m43e6c329ed" y="140.306419"/>
     <use style="fill-opacity:0;stroke:#000000;" x="183.6" xlink:href="#m43e6c329ed" y="85.562004"/>
     <use style="fill-opacity:0;stroke:#000000;" x="183.6" xlink:href="#m43e6c329ed" y="262.670839"/>
     <use style="fill-opacity:0;stroke:#000000;" x="183.6" xlink:href="#m43e6c329ed" y="262.022428"/>
     <use style="fill-opacity:0;stroke:#000000;" x="183.6" xlink:href="#m43e6c329ed" y="260.262455"/>
    </g>
   </g>
   <g id="line2d_24">
    <path clip-path="url(#p7ed0f8c9f9)" d="M 239.4 333.81079 
L 276.6 333.81079 
L 276.6 307.434356 
L 239.4 307.434356 
L 239.4 333.81079 
" style="fill:none;stroke:#a1c9f4;stroke-linecap:round;"/>
   </g>
   <g id="line2d_25">
    <path clip-path="url(#p7ed0f8c9f9)" d="M 258 333.81079 
L 258 359.46934 
" style="fill:none;stroke:#a1c9f4;stroke-linecap:round;"/>
   </g>
   <g id="line2d_26">
    <path clip-path="url(#p7ed0f8c9f9)" d="M 258 307.434356 
L 258 268.136018 
" style="fill:none;stroke:#a1c9f4;stroke-linecap:round;"/>
   </g>
   <g id="line2d_27">
    <path clip-path="url(#p7ed0f8c9f9)" d="M 248.7 359.46934 
L 267.3 359.46934 
" style="fill:none;stroke:#000000;stroke-linecap:round;"/>
   </g>
   <g id="line2d_28">
    <path clip-path="url(#p7ed0f8c9f9)" d="M 248.7 268.136018 
L 267.3 268.136018 
" style="fill:none;stroke:#000000;stroke-linecap:round;"/>
   </g>
   <g id="line2d_29">
    <g clip-path="url(#p7ed0f8c9f9)">
     <use style="fill-opacity:0;stroke:#000000;" x="258" xlink:href="#m43e6c329ed" y="265.635004"/>
     <use style="fill-opacity:0;stroke:#000000;" x="258" xlink:href="#m43e6c329ed" y="260.169825"/>
     <use style="fill-opacity:0;stroke:#000000;" x="258" xlink:href="#m43e6c329ed" y="239.883824"/>
     <use style="fill-opacity:0;stroke:#000000;" x="258" xlink:href="#m43e6c329ed" y="260.262455"/>
     <use style="fill-opacity:0;stroke:#000000;" x="258" xlink:href="#m43e6c329ed" y="256.83514"/>
     <use style="fill-opacity:0;stroke:#000000;" x="258" xlink:href="#m43e6c329ed" y="267.394977"/>
     <use style="fill-opacity:0;stroke:#000000;" x="258" xlink:href="#m43e6c329ed" y="260.725606"/>
     <use style="fill-opacity:0;stroke:#000000;" x="258" xlink:href="#m43e6c329ed" y="217.93048"/>
     <use style="fill-opacity:0;stroke:#000000;" x="258" xlink:href="#m43e6c329ed" y="266.098155"/>
     <use style="fill-opacity:0;stroke:#000000;" x="258" xlink:href="#m43e6c329ed" y="267.672867"/>
     <use style="fill-opacity:0;stroke:#000000;" x="258" xlink:href="#m43e6c329ed" y="264.152922"/>
     <use style="fill-opacity:0;stroke:#000000;" x="258" xlink:href="#m43e6c329ed" y="264.986593"/>
     <use style="fill-opacity:0;stroke:#000000;" x="258" xlink:href="#m43e6c329ed" y="260.169825"/>
     <use style="fill-opacity:0;stroke:#000000;" x="258" xlink:href="#m43e6c329ed" y="222.932507"/>
     <use style="fill-opacity:0;stroke:#000000;" x="258" xlink:href="#m43e6c329ed" y="261.003497"/>
     <use style="fill-opacity:0;stroke:#000000;" x="258" xlink:href="#m43e6c329ed" y="238.679632"/>
     <use style="fill-opacity:0;stroke:#000000;" x="258" xlink:href="#m43e6c329ed" y="263.597141"/>
     <use style="fill-opacity:0;stroke:#000000;" x="258" xlink:href="#m43e6c329ed" y="264.245552"/>
     <use style="fill-opacity:0;stroke:#000000;" x="258" xlink:href="#m43e6c329ed" y="267.302346"/>
     <use style="fill-opacity:0;stroke:#000000;" x="258" xlink:href="#m43e6c329ed" y="249.609989"/>
     <use style="fill-opacity:0;stroke:#000000;" x="258" xlink:href="#m43e6c329ed" y="239.605933"/>
     <use style="fill-opacity:0;stroke:#000000;" x="258" xlink:href="#m43e6c329ed" y="233.862864"/>
     <use style="fill-opacity:0;stroke:#000000;" x="258" xlink:href="#m43e6c329ed" y="254.982537"/>
     <use style="fill-opacity:0;stroke:#000000;" x="258" xlink:href="#m43e6c329ed" y="225.340891"/>
     <use style="fill-opacity:0;stroke:#000000;" x="258" xlink:href="#m43e6c329ed" y="250.44366"/>
     <use style="fill-opacity:0;stroke:#000000;" x="258" xlink:href="#m43e6c329ed" y="264.060291"/>
     <use style="fill-opacity:0;stroke:#000000;" x="258" xlink:href="#m43e6c329ed" y="244.14481"/>
     <use style="fill-opacity:0;stroke:#000000;" x="258" xlink:href="#m43e6c329ed" y="215.799986"/>
     <use style="fill-opacity:0;stroke:#000000;" x="258" xlink:href="#m43e6c329ed" y="247.757386"/>
     <use style="fill-opacity:0;stroke:#000000;" x="258" xlink:href="#m43e6c329ed" y="250.628921"/>
     <use style="fill-opacity:0;stroke:#000000;" x="258" xlink:href="#m43e6c329ed" y="236.271248"/>
    </g>
   </g>
   <g id="line2d_30">
    <path clip-path="url(#p7ed0f8c9f9)" d="M 313.8 337.793886 
L 351 337.793886 
L 351 322.046762 
L 313.8 322.046762 
L 313.8 337.793886 
" style="fill:none;stroke:#a1c9f4;stroke-linecap:round;"/>
   </g>
   <g id="line2d_31">
    <path clip-path="url(#p7ed0f8c9f9)" d="M 332.4 337.793886 
L 332.4 357.153586 
" style="fill:none;stroke:#a1c9f4;stroke-linecap:round;"/>
   </g>
   <g id="line2d_32">
    <path clip-path="url(#p7ed0f8c9f9)" d="M 332.4 322.046762 
L 332.4 298.611335 
" style="fill:none;stroke:#a1c9f4;stroke-linecap:round;"/>
   </g>
   <g id="line2d_33">
    <path clip-path="url(#p7ed0f8c9f9)" d="M 323.1 357.153586 
L 341.7 357.153586 
" style="fill:none;stroke:#000000;stroke-linecap:round;"/>
   </g>
   <g id="line2d_34">
    <path clip-path="url(#p7ed0f8c9f9)" d="M 323.1 298.611335 
L 341.7 298.611335 
" style="fill:none;stroke:#000000;stroke-linecap:round;"/>
   </g>
   <g id="line2d_35">
    <g clip-path="url(#p7ed0f8c9f9)">
     <use style="fill-opacity:0;stroke:#000000;" x="332.4" xlink:href="#m43e6c329ed" y="296.388212"/>
     <use style="fill-opacity:0;stroke:#000000;" x="332.4" xlink:href="#m43e6c329ed" y="256.92777"/>
     <use style="fill-opacity:0;stroke:#000000;" x="332.4" xlink:href="#m43e6c329ed" y="288.144129"/>
     <use style="fill-opacity:0;stroke:#000000;" x="332.4" xlink:href="#m43e6c329ed" y="297.129253"/>
     <use style="fill-opacity:0;stroke:#000000;" x="332.4" xlink:href="#m43e6c329ed" y="296.943993"/>
     <use style="fill-opacity:0;stroke:#000000;" x="332.4" xlink:href="#m43e6c329ed" y="291.386184"/>
     <use style="fill-opacity:0;stroke:#000000;" x="332.4" xlink:href="#m43e6c329ed" y="195.791875"/>
     <use style="fill-opacity:0;stroke:#000000;" x="332.4" xlink:href="#m43e6c329ed" y="283.512622"/>
     <use style="fill-opacity:0;stroke:#000000;" x="332.4" xlink:href="#m43e6c329ed" y="296.943993"/>
     <use style="fill-opacity:0;stroke:#000000;" x="332.4" xlink:href="#m43e6c329ed" y="296.851362"/>
     <use style="fill-opacity:0;stroke:#000000;" x="332.4" xlink:href="#m43e6c329ed" y="279.251635"/>
     <use style="fill-opacity:0;stroke:#000000;" x="332.4" xlink:href="#m43e6c329ed" y="289.533581"/>
     <use style="fill-opacity:0;stroke:#000000;" x="332.4" xlink:href="#m43e6c329ed" y="285.643115"/>
     <use style="fill-opacity:0;stroke:#000000;" x="332.4" xlink:href="#m43e6c329ed" y="297.314513"/>
     <use style="fill-opacity:0;stroke:#000000;" x="332.4" xlink:href="#m43e6c329ed" y="279.251635"/>
     <use style="fill-opacity:0;stroke:#000000;" x="332.4" xlink:href="#m43e6c329ed" y="267.024456"/>
     <use style="fill-opacity:0;stroke:#000000;" x="332.4" xlink:href="#m43e6c329ed" y="289.348321"/>
     <use style="fill-opacity:0;stroke:#000000;" x="332.4" xlink:href="#m43e6c329ed" y="291.849335"/>
     <use style="fill-opacity:0;stroke:#000000;" x="332.4" xlink:href="#m43e6c329ed" y="285.921005"/>
     <use style="fill-opacity:0;stroke:#000000;" x="332.4" xlink:href="#m43e6c329ed" y="279.251635"/>
     <use style="fill-opacity:0;stroke:#000000;" x="332.4" xlink:href="#m43e6c329ed" y="282.123169"/>
     <use style="fill-opacity:0;stroke:#000000;" x="332.4" xlink:href="#m43e6c329ed" y="294.442979"/>
     <use style="fill-opacity:0;stroke:#000000;" x="332.4" xlink:href="#m43e6c329ed" y="280.455827"/>
     <use style="fill-opacity:0;stroke:#000000;" x="332.4" xlink:href="#m43e6c329ed" y="278.695854"/>
     <use style="fill-opacity:0;stroke:#000000;" x="332.4" xlink:href="#m43e6c329ed" y="282.956841"/>
     <use style="fill-opacity:0;stroke:#000000;" x="332.4" xlink:href="#m43e6c329ed" y="296.295581"/>
     <use style="fill-opacity:0;stroke:#000000;" x="332.4" xlink:href="#m43e6c329ed" y="293.146157"/>
     <use style="fill-opacity:0;stroke:#000000;" x="332.4" xlink:href="#m43e6c329ed" y="290.367252"/>
     <use style="fill-opacity:0;stroke:#000000;" x="332.4" xlink:href="#m43e6c329ed" y="295.46191"/>
     <use style="fill-opacity:0;stroke:#000000;" x="332.4" xlink:href="#m43e6c329ed" y="290.737773"/>
     <use style="fill-opacity:0;stroke:#000000;" x="332.4" xlink:href="#m43e6c329ed" y="238.772262"/>
     <use style="fill-opacity:0;stroke:#000000;" x="332.4" xlink:href="#m43e6c329ed" y="66.665455"/>
     <use style="fill-opacity:0;stroke:#000000;" x="332.4" xlink:href="#m43e6c329ed" y="297.407143"/>
     <use style="fill-opacity:0;stroke:#000000;" x="332.4" xlink:href="#m43e6c329ed" y="274.527498"/>
     <use style="fill-opacity:0;stroke:#000000;" x="332.4" xlink:href="#m43e6c329ed" y="296.666102"/>
     <use style="fill-opacity:0;stroke:#000000;" x="332.4" xlink:href="#m43e6c329ed" y="263.31925"/>
     <use style="fill-opacity:0;stroke:#000000;" x="332.4" xlink:href="#m43e6c329ed" y="276.935881"/>
     <use style="fill-opacity:0;stroke:#000000;" x="332.4" xlink:href="#m43e6c329ed" y="285.365225"/>
     <use style="fill-opacity:0;stroke:#000000;" x="332.4" xlink:href="#m43e6c329ed" y="263.875031"/>
     <use style="fill-opacity:0;stroke:#000000;" x="332.4" xlink:href="#m43e6c329ed" y="264.060291"/>
     <use style="fill-opacity:0;stroke:#000000;" x="332.4" xlink:href="#m43e6c329ed" y="288.051499"/>
     <use style="fill-opacity:0;stroke:#000000;" x="332.4" xlink:href="#m43e6c329ed" y="234.511275"/>
     <use style="fill-opacity:0;stroke:#000000;" x="332.4" xlink:href="#m43e6c329ed" y="297.221883"/>
     <use style="fill-opacity:0;stroke:#000000;" x="332.4" xlink:href="#m43e6c329ed" y="278.047443"/>
     <use style="fill-opacity:0;stroke:#000000;" x="332.4" xlink:href="#m43e6c329ed" y="295.739801"/>
     <use style="fill-opacity:0;stroke:#000000;" x="332.4" xlink:href="#m43e6c329ed" y="296.110321"/>
     <use style="fill-opacity:0;stroke:#000000;" x="332.4" xlink:href="#m43e6c329ed" y="97.140772"/>
     <use style="fill-opacity:0;stroke:#000000;" x="332.4" xlink:href="#m43e6c329ed" y="297.499773"/>
     <use style="fill-opacity:0;stroke:#000000;" x="332.4" xlink:href="#m43e6c329ed" y="157.165105"/>
     <use style="fill-opacity:0;stroke:#000000;" x="332.4" xlink:href="#m43e6c329ed" y="223.673549"/>
     <use style="fill-opacity:0;stroke:#000000;" x="332.4" xlink:href="#m43e6c329ed" y="297.221883"/>
     <use style="fill-opacity:0;stroke:#000000;" x="332.4" xlink:href="#m43e6c329ed" y="293.146157"/>
     <use style="fill-opacity:0;stroke:#000000;" x="332.4" xlink:href="#m43e6c329ed" y="272.952785"/>
     <use style="fill-opacity:0;stroke:#000000;" x="332.4" xlink:href="#m43e6c329ed" y="296.017691"/>
    </g>
   </g>
   <g id="line2d_36">
    <path clip-path="url(#p7ed0f8c9f9)" d="M 388.2 344.926407 
L 425.4 344.926407 
L 425.4 331.865557 
L 388.2 331.865557 
L 388.2 344.926407 
" style="fill:none;stroke:#a1c9f4;stroke-linecap:round;"/>
   </g>
   <g id="line2d_37">
    <path clip-path="url(#p7ed0f8c9f9)" d="M 406.8 344.926407 
L 406.8 357.894627 
" style="fill:none;stroke:#a1c9f4;stroke-linecap:round;"/>
   </g>
   <g id="line2d_38">
    <path clip-path="url(#p7ed0f8c9f9)" d="M 406.8 331.865557 
L 406.8 312.320596 
" style="fill:none;stroke:#a1c9f4;stroke-linecap:round;"/>
   </g>
   <g id="line2d_39">
    <path clip-path="url(#p7ed0f8c9f9)" d="M 397.5 357.894627 
L 416.1 357.894627 
" style="fill:none;stroke:#000000;stroke-linecap:round;"/>
   </g>
   <g id="line2d_40">
    <path clip-path="url(#p7ed0f8c9f9)" d="M 397.5 312.320596 
L 416.1 312.320596 
" style="fill:none;stroke:#000000;stroke-linecap:round;"/>
   </g>
   <g id="line2d_41">
    <g clip-path="url(#p7ed0f8c9f9)">
     <use style="fill-opacity:0;stroke:#000000;" x="406.8" xlink:href="#m43e6c329ed" y="281.660019"/>
     <use style="fill-opacity:0;stroke:#000000;" x="406.8" xlink:href="#m43e6c329ed" y="307.689089"/>
     <use style="fill-opacity:0;stroke:#000000;" x="406.8" xlink:href="#m43e6c329ed" y="307.781719"/>
     <use style="fill-opacity:0;stroke:#000000;" x="406.8" xlink:href="#m43e6c329ed" y="310.931144"/>
     <use style="fill-opacity:0;stroke:#000000;" x="406.8" xlink:href="#m43e6c329ed" y="302.964952"/>
     <use style="fill-opacity:0;stroke:#000000;" x="406.8" xlink:href="#m43e6c329ed" y="300.556568"/>
     <use style="fill-opacity:0;stroke:#000000;" x="406.8" xlink:href="#m43e6c329ed" y="309.449062"/>
     <use style="fill-opacity:0;stroke:#000000;" x="406.8" xlink:href="#m43e6c329ed" y="267.580237"/>
     <use style="fill-opacity:0;stroke:#000000;" x="406.8" xlink:href="#m43e6c329ed" y="311.486925"/>
     <use style="fill-opacity:0;stroke:#000000;" x="406.8" xlink:href="#m43e6c329ed" y="299.630267"/>
     <use style="fill-opacity:0;stroke:#000000;" x="406.8" xlink:href="#m43e6c329ed" y="311.950076"/>
     <use style="fill-opacity:0;stroke:#000000;" x="406.8" xlink:href="#m43e6c329ed" y="304.076514"/>
     <use style="fill-opacity:0;stroke:#000000;" x="406.8" xlink:href="#m43e6c329ed" y="310.097473"/>
     <use style="fill-opacity:0;stroke:#000000;" x="406.8" xlink:href="#m43e6c329ed" y="264.616072"/>
     <use style="fill-opacity:0;stroke:#000000;" x="406.8" xlink:href="#m43e6c329ed" y="309.541692"/>
     <use style="fill-opacity:0;stroke:#000000;" x="406.8" xlink:href="#m43e6c329ed" y="252.111003"/>
     <use style="fill-opacity:0;stroke:#000000;" x="406.8" xlink:href="#m43e6c329ed" y="293.424047"/>
     <use style="fill-opacity:0;stroke:#000000;" x="406.8" xlink:href="#m43e6c329ed" y="305.558596"/>
     <use style="fill-opacity:0;stroke:#000000;" x="406.8" xlink:href="#m43e6c329ed" y="296.110321"/>
     <use style="fill-opacity:0;stroke:#000000;" x="406.8" xlink:href="#m43e6c329ed" y="295.55454"/>
     <use style="fill-opacity:0;stroke:#000000;" x="406.8" xlink:href="#m43e6c329ed" y="309.912213"/>
     <use style="fill-opacity:0;stroke:#000000;" x="406.8" xlink:href="#m43e6c329ed" y="306.577527"/>
     <use style="fill-opacity:0;stroke:#000000;" x="406.8" xlink:href="#m43e6c329ed" y="304.354404"/>
     <use style="fill-opacity:0;stroke:#000000;" x="406.8" xlink:href="#m43e6c329ed" y="301.66813"/>
     <use style="fill-opacity:0;stroke:#000000;" x="406.8" xlink:href="#m43e6c329ed" y="302.501801"/>
     <use style="fill-opacity:0;stroke:#000000;" x="406.8" xlink:href="#m43e6c329ed" y="303.798623"/>
     <use style="fill-opacity:0;stroke:#000000;" x="406.8" xlink:href="#m43e6c329ed" y="307.133308"/>
     <use style="fill-opacity:0;stroke:#000000;" x="406.8" xlink:href="#m43e6c329ed" y="303.428103"/>
     <use style="fill-opacity:0;stroke:#000000;" x="406.8" xlink:href="#m43e6c329ed" y="304.539664"/>
     <use style="fill-opacity:0;stroke:#000000;" x="406.8" xlink:href="#m43e6c329ed" y="309.449062"/>
     <use style="fill-opacity:0;stroke:#000000;" x="406.8" xlink:href="#m43e6c329ed" y="308.800651"/>
     <use style="fill-opacity:0;stroke:#000000;" x="406.8" xlink:href="#m43e6c329ed" y="310.282733"/>
     <use style="fill-opacity:0;stroke:#000000;" x="406.8" xlink:href="#m43e6c329ed" y="307.411199"/>
     <use style="fill-opacity:0;stroke:#000000;" x="406.8" xlink:href="#m43e6c329ed" y="305.929116"/>
     <use style="fill-opacity:0;stroke:#000000;" x="406.8" xlink:href="#m43e6c329ed" y="308.615391"/>
     <use style="fill-opacity:0;stroke:#000000;" x="406.8" xlink:href="#m43e6c329ed" y="300.463938"/>
     <use style="fill-opacity:0;stroke:#000000;" x="406.8" xlink:href="#m43e6c329ed" y="303.613363"/>
     <use style="fill-opacity:0;stroke:#000000;" x="406.8" xlink:href="#m43e6c329ed" y="292.683006"/>
     <use style="fill-opacity:0;stroke:#000000;" x="406.8" xlink:href="#m43e6c329ed" y="309.819583"/>
     <use style="fill-opacity:0;stroke:#000000;" x="406.8" xlink:href="#m43e6c329ed" y="306.484897"/>
     <use style="fill-opacity:0;stroke:#000000;" x="406.8" xlink:href="#m43e6c329ed" y="295.55454"/>
     <use style="fill-opacity:0;stroke:#000000;" x="406.8" xlink:href="#m43e6c329ed" y="298.240815"/>
     <use style="fill-opacity:0;stroke:#000000;" x="406.8" xlink:href="#m43e6c329ed" y="309.263802"/>
     <use style="fill-opacity:0;stroke:#000000;" x="406.8" xlink:href="#m43e6c329ed" y="298.333445"/>
     <use style="fill-opacity:0;stroke:#000000;" x="406.8" xlink:href="#m43e6c329ed" y="293.053526"/>
     <use style="fill-opacity:0;stroke:#000000;" x="406.8" xlink:href="#m43e6c329ed" y="302.779692"/>
     <use style="fill-opacity:0;stroke:#000000;" x="406.8" xlink:href="#m43e6c329ed" y="311.672185"/>
     <use style="fill-opacity:0;stroke:#000000;" x="406.8" xlink:href="#m43e6c329ed" y="305.651226"/>
     <use style="fill-opacity:0;stroke:#000000;" x="406.8" xlink:href="#m43e6c329ed" y="300.556568"/>
     <use style="fill-opacity:0;stroke:#000000;" x="406.8" xlink:href="#m43e6c329ed" y="309.449062"/>
    </g>
   </g>
   <g id="line2d_42">
    <path clip-path="url(#p7ed0f8c9f9)" d="M 462.6 350.947366 
L 499.8 350.947366 
L 499.8 342.795914 
L 462.6 342.795914 
L 462.6 350.947366 
" style="fill:none;stroke:#a1c9f4;stroke-linecap:round;"/>
   </g>
   <g id="line2d_43">
    <path clip-path="url(#p7ed0f8c9f9)" d="M 481.2 350.947366 
L 481.2 363.174545 
" style="fill:none;stroke:#a1c9f4;stroke-linecap:round;"/>
   </g>
   <g id="line2d_44">
    <path clip-path="url(#p7ed0f8c9f9)" d="M 481.2 342.795914 
L 481.2 331.217146 
" style="fill:none;stroke:#a1c9f4;stroke-linecap:round;"/>
   </g>
   <g id="line2d_45">
    <path clip-path="url(#p7ed0f8c9f9)" d="M 471.9 363.174545 
L 490.5 363.174545 
" style="fill:none;stroke:#000000;stroke-linecap:round;"/>
   </g>
   <g id="line2d_46">
    <path clip-path="url(#p7ed0f8c9f9)" d="M 471.9 331.217146 
L 490.5 331.217146 
" style="fill:none;stroke:#000000;stroke-linecap:round;"/>
   </g>
   <g id="line2d_47">
    <g clip-path="url(#p7ed0f8c9f9)">
     <use style="fill-opacity:0;stroke:#000000;" x="481.2" xlink:href="#m43e6c329ed" y="305.280705"/>
     <use style="fill-opacity:0;stroke:#000000;" x="481.2" xlink:href="#m43e6c329ed" y="316.488953"/>
     <use style="fill-opacity:0;stroke:#000000;" x="481.2" xlink:href="#m43e6c329ed" y="327.41931"/>
     <use style="fill-opacity:0;stroke:#000000;" x="481.2" xlink:href="#m43e6c329ed" y="328.530872"/>
     <use style="fill-opacity:0;stroke:#000000;" x="481.2" xlink:href="#m43e6c329ed" y="301.85339"/>
     <use style="fill-opacity:0;stroke:#000000;" x="481.2" xlink:href="#m43e6c329ed" y="328.160351"/>
     <use style="fill-opacity:0;stroke:#000000;" x="481.2" xlink:href="#m43e6c329ed" y="326.029858"/>
     <use style="fill-opacity:0;stroke:#000000;" x="481.2" xlink:href="#m43e6c329ed" y="330.383474"/>
     <use style="fill-opacity:0;stroke:#000000;" x="481.2" xlink:href="#m43e6c329ed" y="329.271913"/>
     <use style="fill-opacity:0;stroke:#000000;" x="481.2" xlink:href="#m43e6c329ed" y="318.897337"/>
     <use style="fill-opacity:0;stroke:#000000;" x="481.2" xlink:href="#m43e6c329ed" y="322.973063"/>
     <use style="fill-opacity:0;stroke:#000000;" x="481.2" xlink:href="#m43e6c329ed" y="322.046762"/>
     <use style="fill-opacity:0;stroke:#000000;" x="481.2" xlink:href="#m43e6c329ed" y="324.362515"/>
     <use style="fill-opacity:0;stroke:#000000;" x="481.2" xlink:href="#m43e6c329ed" y="324.825666"/>
    </g>
   </g>
   <g id="line2d_48">
    <path clip-path="url(#p7ed0f8c9f9)" d="M 90.6 329.179283 
L 127.8 329.179283 
" style="fill:none;stroke:#8de5a1;stroke-linecap:round;"/>
   </g>
   <g id="line2d_49">
    <path clip-path="url(#p7ed0f8c9f9)" d="M 165 330.52242 
L 202.2 330.52242 
" style="fill:none;stroke:#8de5a1;stroke-linecap:round;"/>
   </g>
   <g id="line2d_50">
    <path clip-path="url(#p7ed0f8c9f9)" d="M 239.4 322.185707 
L 276.6 322.185707 
" style="fill:none;stroke:#8de5a1;stroke-linecap:round;"/>
   </g>
   <g id="line2d_51">
    <path clip-path="url(#p7ed0f8c9f9)" d="M 313.8 331.309776 
L 351 331.309776 
" style="fill:none;stroke:#8de5a1;stroke-linecap:round;"/>
   </g>
   <g id="line2d_52">
    <path clip-path="url(#p7ed0f8c9f9)" d="M 388.2 339.507544 
L 425.4 339.507544 
" style="fill:none;stroke:#8de5a1;stroke-linecap:round;"/>
   </g>
   <g id="line2d_53">
    <path clip-path="url(#p7ed0f8c9f9)" d="M 462.6 346.87164 
L 499.8 346.87164 
" style="fill:none;stroke:#8de5a1;stroke-linecap:round;"/>
   </g>
   <g id="patch_3">
    <path d="M 72 378 
L 72 51.84 
" style="fill:none;stroke:#262626;stroke-linecap:square;stroke-linejoin:miter;stroke-width:0.8;"/>
   </g>
   <g id="patch_4">
    <path d="M 518.4 378 
L 518.4 51.84 
" style="fill:none;stroke:#262626;stroke-linecap:square;stroke-linejoin:miter;stroke-width:0.8;"/>
   </g>
   <g id="patch_5">
    <path d="M 72 378 
L 518.4 378 
" style="fill:none;stroke:#262626;stroke-linecap:square;stroke-linejoin:miter;stroke-width:0.8;"/>
   </g>
   <g id="patch_6">
    <path d="M 72 51.84 
L 518.4 51.84 
" style="fill:none;stroke:#262626;stroke-linecap:square;stroke-linejoin:miter;stroke-width:0.8;"/>
   </g>
   <g id="text_13">
    <!-- Travel Time Analysis by Time of Day for hotspot 3792 -->
    <defs>
     <path d="M 14.703125 0 
L 6.546875 0 
L 6.546875 71.578125 
L 15.328125 71.578125 
L 15.328125 46.046875 
Q 20.90625 53.03125 29.546875 53.03125 
Q 34.328125 53.03125 38.59375 51.09375 
Q 42.875 49.171875 45.625 45.671875 
Q 48.390625 42.1875 49.953125 37.25 
Q 51.515625 32.328125 51.515625 26.703125 
Q 51.515625 13.375 44.921875 6.09375 
Q 38.328125 -1.171875 29.109375 -1.171875 
Q 19.921875 -1.171875 14.703125 6.5 
z
M 14.59375 26.3125 
Q 14.59375 17 17.140625 12.84375 
Q 21.296875 6.0625 28.375 6.0625 
Q 34.125 6.0625 38.328125 11.0625 
Q 42.53125 16.0625 42.53125 25.984375 
Q 42.53125 36.140625 38.5 40.96875 
Q 34.46875 45.796875 28.765625 45.796875 
Q 23 45.796875 18.796875 40.796875 
Q 14.59375 35.796875 14.59375 26.3125 
z
" id="ArialMT-98"/>
     <path d="M 8.6875 0 
L 8.6875 45.015625 
L 0.921875 45.015625 
L 0.921875 51.859375 
L 8.6875 51.859375 
L 8.6875 57.375 
Q 8.6875 62.59375 9.625 65.140625 
Q 10.890625 68.5625 14.078125 70.671875 
Q 17.28125 72.796875 23.046875 72.796875 
Q 26.765625 72.796875 31.25 71.921875 
L 29.9375 64.265625 
Q 27.203125 64.75 24.75 64.75 
Q 20.75 64.75 19.09375 63.03125 
Q 17.4375 61.328125 17.4375 56.640625 
L 17.4375 51.859375 
L 27.546875 51.859375 
L 27.546875 45.015625 
L 17.4375 45.015625 
L 17.4375 0 
z
" id="ArialMT-102"/>
     <path d="M 6.59375 0 
L 6.59375 71.578125 
L 15.375 71.578125 
L 15.375 45.90625 
Q 21.53125 53.03125 30.90625 53.03125 
Q 36.671875 53.03125 40.921875 50.75 
Q 45.171875 48.484375 47 44.484375 
Q 48.828125 40.484375 48.828125 32.859375 
L 48.828125 0 
L 40.046875 0 
L 40.046875 32.859375 
Q 40.046875 39.453125 37.1875 42.453125 
Q 34.328125 45.453125 29.109375 45.453125 
Q 25.203125 45.453125 21.75 43.421875 
Q 18.3125 41.40625 16.84375 37.9375 
Q 15.375 34.46875 15.375 28.375 
L 15.375 0 
z
" id="ArialMT-104"/>
     <path d="M 6.59375 -19.875 
L 6.59375 51.859375 
L 14.59375 51.859375 
L 14.59375 45.125 
Q 17.4375 49.078125 21 51.046875 
Q 24.5625 53.03125 29.640625 53.03125 
Q 36.28125 53.03125 41.359375 49.609375 
Q 46.4375 46.1875 49.015625 39.953125 
Q 51.609375 33.734375 51.609375 26.3125 
Q 51.609375 18.359375 48.75 11.984375 
Q 45.90625 5.609375 40.453125 2.21875 
Q 35.015625 -1.171875 29 -1.171875 
Q 24.609375 -1.171875 21.109375 0.6875 
Q 17.625 2.546875 15.375 5.375 
L 15.375 -19.875 
z
M 14.546875 25.640625 
Q 14.546875 15.625 18.59375 10.84375 
Q 22.65625 6.0625 28.421875 6.0625 
Q 34.28125 6.0625 38.453125 11.015625 
Q 42.625 15.96875 42.625 26.375 
Q 42.625 36.28125 38.546875 41.203125 
Q 34.46875 46.140625 28.8125 46.140625 
Q 23.1875 46.140625 18.859375 40.890625 
Q 14.546875 35.640625 14.546875 25.640625 
z
" id="ArialMT-112"/>
     <path d="M 4.734375 62.203125 
L 4.734375 70.65625 
L 51.078125 70.65625 
L 51.078125 63.8125 
Q 44.234375 56.546875 37.515625 44.484375 
Q 30.8125 32.421875 27.15625 19.671875 
Q 24.515625 10.6875 23.78125 0 
L 14.75 0 
Q 14.890625 8.453125 18.0625 20.40625 
Q 21.234375 32.375 27.171875 43.484375 
Q 33.109375 54.59375 39.796875 62.203125 
z
" id="ArialMT-55"/>
     <path d="M 5.46875 16.546875 
L 13.921875 17.328125 
Q 14.984375 11.375 18.015625 8.6875 
Q 21.046875 6 25.78125 6 
Q 29.828125 6 32.875 7.859375 
Q 35.9375 9.71875 37.890625 12.8125 
Q 39.84375 15.921875 41.15625 21.1875 
Q 42.484375 26.46875 42.484375 31.9375 
Q 42.484375 32.515625 42.4375 33.6875 
Q 39.796875 29.5 35.234375 26.875 
Q 30.671875 24.265625 25.34375 24.265625 
Q 16.453125 24.265625 10.296875 30.703125 
Q 4.15625 37.15625 4.15625 47.703125 
Q 4.15625 58.59375 10.578125 65.234375 
Q 17 71.875 26.65625 71.875 
Q 33.640625 71.875 39.421875 68.109375 
Q 45.21875 64.359375 48.21875 57.390625 
Q 51.21875 50.4375 51.21875 37.25 
Q 51.21875 23.53125 48.234375 15.40625 
Q 45.265625 7.28125 39.375 3.03125 
Q 33.5 -1.21875 25.59375 -1.21875 
Q 17.1875 -1.21875 11.859375 3.4375 
Q 6.546875 8.109375 5.46875 16.546875 
z
M 41.453125 48.140625 
Q 41.453125 55.71875 37.421875 60.15625 
Q 33.40625 64.59375 27.734375 64.59375 
Q 21.875 64.59375 17.53125 59.8125 
Q 13.1875 55.03125 13.1875 47.40625 
Q 13.1875 40.578125 17.3125 36.296875 
Q 21.4375 32.03125 27.484375 32.03125 
Q 33.59375 32.03125 37.515625 36.296875 
Q 41.453125 40.578125 41.453125 48.140625 
z
" id="ArialMT-57"/>
    </defs>
    <g style="fill:#262626;" transform="translate(152.50125 45.84)scale(0.12 -0.12)">
     <use xlink:href="#ArialMT-84"/>
     <use x="61.037109" xlink:href="#ArialMT-114"/>
     <use x="94.337891" xlink:href="#ArialMT-97"/>
     <use x="149.953125" xlink:href="#ArialMT-118"/>
     <use x="199.953125" xlink:href="#ArialMT-101"/>
     <use x="255.568359" xlink:href="#ArialMT-108"/>
     <use x="277.785156" xlink:href="#ArialMT-32"/>
     <use x="305.552734" xlink:href="#ArialMT-84"/>
     <use x="366.589844" xlink:href="#ArialMT-105"/>
     <use x="388.806641" xlink:href="#ArialMT-109"/>
     <use x="472.107422" xlink:href="#ArialMT-101"/>
     <use x="527.722656" xlink:href="#ArialMT-32"/>
     <use x="555.427734" xlink:href="#ArialMT-65"/>
     <use x="622.126953" xlink:href="#ArialMT-110"/>
     <use x="677.742188" xlink:href="#ArialMT-97"/>
     <use x="733.357422" xlink:href="#ArialMT-108"/>
     <use x="755.574219" xlink:href="#ArialMT-121"/>
     <use x="805.574219" xlink:href="#ArialMT-115"/>
     <use x="855.574219" xlink:href="#ArialMT-105"/>
     <use x="877.791016" xlink:href="#ArialMT-115"/>
     <use x="927.791016" xlink:href="#ArialMT-32"/>
     <use x="955.574219" xlink:href="#ArialMT-98"/>
     <use x="1011.189453" xlink:href="#ArialMT-121"/>
     <use x="1061.189453" xlink:href="#ArialMT-32"/>
     <use x="1088.957031" xlink:href="#ArialMT-84"/>
     <use x="1149.994141" xlink:href="#ArialMT-105"/>
     <use x="1172.210938" xlink:href="#ArialMT-109"/>
     <use x="1255.511719" xlink:href="#ArialMT-101"/>
     <use x="1311.126953" xlink:href="#ArialMT-32"/>
     <use x="1338.910156" xlink:href="#ArialMT-111"/>
     <use x="1394.525391" xlink:href="#ArialMT-102"/>
     <use x="1422.308594" xlink:href="#ArialMT-32"/>
     <use x="1450.091797" xlink:href="#ArialMT-68"/>
     <use x="1522.308594" xlink:href="#ArialMT-97"/>
     <use x="1577.923828" xlink:href="#ArialMT-121"/>
     <use x="1627.923828" xlink:href="#ArialMT-32"/>
     <use x="1655.707031" xlink:href="#ArialMT-102"/>
     <use x="1683.490234" xlink:href="#ArialMT-111"/>
     <use x="1739.105469" xlink:href="#ArialMT-114"/>
     <use x="1772.40625" xlink:href="#ArialMT-32"/>
     <use x="1800.189453" xlink:href="#ArialMT-104"/>
     <use x="1855.804688" xlink:href="#ArialMT-111"/>
     <use x="1911.419922" xlink:href="#ArialMT-116"/>
     <use x="1939.203125" xlink:href="#ArialMT-115"/>
     <use x="1989.203125" xlink:href="#ArialMT-112"/>
     <use x="2044.818359" xlink:href="#ArialMT-111"/>
     <use x="2100.433594" xlink:href="#ArialMT-116"/>
     <use x="2128.216797" xlink:href="#ArialMT-32"/>
     <use x="2156" xlink:href="#ArialMT-51"/>
     <use x="2211.615234" xlink:href="#ArialMT-55"/>
     <use x="2267.230469" xlink:href="#ArialMT-57"/>
     <use x="2322.845703" xlink:href="#ArialMT-50"/>
    </g>
   </g>
  </g>
 </g>
 <defs>
  <clipPath id="p7ed0f8c9f9">
   <rect height="326.16" width="446.4" x="72" y="51.84"/>
  </clipPath>
 </defs>
</svg>
